# xmcd CD database file
#
# Track frame offsets:
#	150
#	26120
#	50260
#
# Disc length: 809 seconds
#
# Revision: 0
# Processed by: cddbd v1.5PL3 Copyright (c) Steve Scherf et al.
# Submitted via: CDex 1.51
#
DISCID=1e032703
DTITLE=revenus - アカシア
DYEAR=2002
DGENRE=JPop
TTITLE0=アカシア
TTITLE1=MERRY-GO-ROND
TTITLE2=アカシア (Piano Instrumental Version)
EXTD=YEAR: 2002
EXTT0=
EXTT1=
EXTT2=
PLAYORDER=
